:SAMPLES-PER-SECOND 30
:FRAME-RANGE 1-2045
:FULLY-SPECIFIED
:DEGREES
576
root  63.0947 36.068 -16.9397 -158.62 -49.2883 168.75
RightUpLeg  -29.6098 -11.131 -5.29776
RightLeg  51.5287 -0.100175 -0.502243
RightFoot  -32.5208 0.347336 3.04232
RightToes  -5.28216e-011 1.2921e-014 -6.02303e-014
Spine  16.6349 1.92916 10.3699
Spine1  2.4936 5.17637 -7.86951
HEad  2.61147 19.4842 -15.8099
LeftShoulder1  1.65296 -2.775 -21.0472
LeftArm  15.7918 8.66624 -55.1762
LeftForeArm  -11.9979 -19.9997 -6.80416
LeftHand  -0.038771 3.93463 1.39323
RightShoulder  2.51449 6.97425 18.0158
RightArm  47.2826 31.0431 86.7515
RightForeArm  20.8701 22.9906 4.11952
RightHand  0.0785312 -6.66055 -9.48341
LeftUpLeg  -33.0611 3.47843 4.93767
LeftLeg  57.2111 4.69774 8.36269
LeftFoot  -15.3923 -0.123176 -6.08479
LeftToes  9.43379e-011 5.24309e-011 -4.66411e-011
577
root  62.6292 36.6712 -17.9997 -158.99 -47.7509 169.777
RightUpLeg  -26.1196 -9.69364 -4.3508
RightLeg  46.4367 -0.161213 -0.501528
RightFoot  -31.3649 0.226786 2.49344
RightToes  -5.28216e-011 1.2921e-014 -6.02303e-014
Spine  16.4155 3.01746 11.4406
Spine1  2.6625 6.5093 -8.20508
HEad  2.95742 23.1898 -16.5955
LeftShoulder1  1.52622 -2.23601 -21.4252
LeftArm  14.6165 8.51618 -54.6351
LeftForeArm  -9.85593 -18.2896 -7.78302
LeftHand  -0.0370177 3.94662 1.37271
RightShoulder  2.58044 7.2735 17.9444
RightArm  42.6477 32.2976 86.9396
RightForeArm  25.261 20.9072 5.35878
RightHand  0.0658359 -6.55978 -9.05432
LeftUpLeg  -36.7143 3.34871 0.216825
LeftLeg  54.4129 5.78378 9.12078
LeftFoot  -16.1862 -0.11437 -4.99313
LeftToes  9.43379e-011 5.24309e-011 -4.66411e-011
578
root  62.0986 37.2319 -19.1678 -159.535 -46.5728 170.771
RightUpLeg  -21.867 -7.57035 -3.33375
RightLeg  40.8151 -0.888951 -1.1049
RightFoot  -30.0716 0.177868 2.31797
RightToes  -5.28216e-011 1.2921e-014 -6.02303e-014
Spine  15.9002 4.14255 12.2355
Spine1  2.95206 7.78361 -8.55753
HEad  3.2858 29.5166 -17.465
LeftShoulder1  1.36056 -1.61892 -21.5148
LeftArm  12.1938 8.75809 -53.7652
LeftForeArm  -7.7159 -16.5681 -8.75207
LeftHand  -0.0364617 4.14665 1.52271
RightShoulder  2.59728 7.52873 17.4908
RightArm  33.3524 33.9366 86.7466
RightForeArm  34.9676 17.4299 8.05746
RightHand  0.0599809 -6.35902 -10.004
LeftUpLeg  -39.1532 3.11604 -3.80435
LeftLeg  48.5212 6.39837 8.13713
LeftFoot  -15.9101 -0.0940389 -4.74476
LeftToes  9.43379e-011 5.24309e-011 -4.66411e-011
579
root  61.4776 37.6752 -20.4118 -160.033 -45.8788 171.703
RightUpLeg  -17.3072 -5.8422 -2.22785
RightLeg  35.17 -1.77277 -1.59718
RightFoot  -28.7717 0.156371 2.29494
RightToes  -5.28216e-011 1.2921e-014 -6.02303e-014
Spine  14.8411 5.13317 13.2966
Spine1  3.37937 8.93513 -9.34001
HEad  3.42478 37.2195 -18.1323
LeftShoulder1  1.24186 -1.1894 -21.5115
LeftArm  8.74705 8.75586 -52.4129
LeftForeArm  -4.87024 -14.2733 -9.88751
LeftHand  -0.0354918 4.29324 1.70121
RightShoulder  2.59212 7.82191 16.7539
RightArm  21.6699 35.3237 85.735
RightForeArm  46.3687 13.5599 10.1721
RightHand  0.0545795 -6.28315 -10.1012
LeftUpLeg  -40.588 2.45064 -7.10224
LeftLeg  40.4665 6.84054 6.60196
LeftFoot  -13.8774 -0.036471 -5.39957
LeftToes  9.43379e-011 5.24309e-011 -4.66411e-011
580
root  60.7728 37.9368 -21.7291 -160.796 -45.4664 173.08
RightUpLeg  -12.7891 -4.7008 -0.715841
RightLeg  29.9745 -2.25812 -1.64412
RightFoot  -27.5741 0.100885 2.01978
RightToes  -5.28216e-011 1.2921e-014 -6.02303e-014
Spine  13.5474 6.08334 14.7464
Spine1  3.60744 10.0487 -10.4604
HEad  3.02851 44.8626 -18.9859
LeftShoulder1  1.10065 -0.705123 -21.3118
LeftArm  4.52375 8.42891 -51.1038
LeftForeArm  -0.856202 -11.6674 -10.8078
LeftHand  -0.0330195 4.24613 1.85312
RightShoulder  2.53684 7.97596 15.871
RightArm  11.1767 36.1547 84.0498
RightForeArm  55.4742 10.2048 10.9016
RightHand  0.0578548 -6.29148 -10.3905
LeftUpLeg  -41.3314 2.27793 -9.70991
LeftLeg  31.5414 7.73581 5.44381
LeftFoot  -9.89342 0.143798 -6.6875
LeftToes  9.43379e-011 5.24309e-011 -4.66411e-011
581
root  60.0219 38.0262 -23.1236 -162.077 -45.046 174.901
RightUpLeg  -8.10572 -5.07093 0.972415
RightLeg  25.2281 -1.29026 -0.8874
RightFoot  -26.4448 0.00596269 1.39802
RightToes  -5.28216e-011 1.2921e-014 -6.02303e-014
Spine  12.353 6.88318 16.0367
Spine1  3.91549 11.0264 -11.6475
HEad  1.28167 51.6203 -20.5351
LeftShoulder1  0.987658 -0.307677 -21.1938
LeftArm  0.693265 8.0155 -49.5389
LeftForeArm  2.14784 -9.44756 -11.1996
LeftHand  -0.0347489 4.33492 1.77981
RightShoulder  2.4788 8.11365 15.0166
RightArm  3.6532 36.6392 82.1017
RightForeArm  61.0127 7.65891 10.6754
RightHand  0.0521799 -6.23848 -10.2579
LeftUpLeg  -41.4195 2.96547 -11.9906
LeftLeg  23.1687 10.5761 5.25145
LeftFoot  -5.90701 0.411124 -7.90918
LeftToes  9.43379e-011 5.24309e-011 -4.66411e-011
582
root  59.2495 37.8964 -24.6037 -163.907 -44.4864 177.193
RightUpLeg  -3.52225 -5.5401 2.82617
RightLeg  21.6879 0.280312 -0.0945061
RightFoot  -25.7006 -0.0830738 0.723719
RightToes  -5.28216e-011 1.2921e-014 -6.02303e-014
Spine  11.1228 7.49245 16.7708
Spine1  4.33406 11.7091 -12.5363
HEad  -1.98211 56.8623 -23.023
LeftShoulder1  0.904959 -0.0462909 -20.8342
LeftArm  -2.4599 7.72803 -48.2012
LeftForeArm  3.82702 -7.56841 -11.247
LeftHand  -0.0370291 4.61719 2.08473
RightShoulder  2.42644 8.18724 14.3626
RightArm  -1.21584 37.0999 80.4107
RightForeArm  63.3749 5.1217 9.99606
RightHand  0.0512286 -6.14204 -11.2073
LeftUpLeg  -41.7081 3.69074 -13.3318
LeftLeg  17.7651 13.9289 5.20505
LeftFoot  -5.68496 0.426104 -7.92797
LeftToes  9.43379e-011 5.24309e-011 -4.66411e-011
583
root  58.4686 37.5735 -26.1796 -166.048 -44.1951 179.477
RightUpLeg  0.977887 -4.89086 5.0824
RightLeg  19.5104 0.379405 -0.0350257
RightFoot  -25.2325 -0.0786567 0.7583
RightToes  -5.28216e-011 1.2921e-014 -6.02303e-014
Spine  10.1845 7.70904 16.2706
Spine1  4.16335 11.6473 -12.6388
HEad  -7.12836 60.147 -26.633
LeftShoulder1  0.887075 -0.0332611 -20.3739
LeftArm  -4.86605 7.63471 -46.8742
LeftForeArm  4.76032 -5.55316 -11.1398
LeftHand  -0.0390918 4.57159 2.32741
RightShoulder  2.37148 8.11082 13.9869
RightArm  -3.27787 37.4271 79.1634
RightForeArm  63.2255 2.25228 8.96901
RightHand  0.0911191 -6.40303 -12.775
LeftUpLeg  -42.3713 2.25355 -12.3989
LeftLeg  16.7375 16.6402 5.65718
LeftFoot  -5.92795 0.338014 -6.39462
LeftToes  9.43379e-011 5.24309e-011 -4.66411e-011
584
root  57.6867 37.0575 -27.8229 -167.568 -43.4813 -178.985
RightUpLeg  4.32174 -4.90318 6.4014
RightLeg  19.9901 2.06651 0.635906
RightFoot  -25.5824 -0.110239 0.505763
RightToes  -5.28216e-011 1.2921e-014 -6.02303e-014
Spine  9.13046 7.85481 14.4376
Spine1  4.18638 11.4839 -12.7074
HEad  -14.2652 61.5501 -31.2064
LeftShoulder1  0.877868 -0.0345434 -20.0676
LeftArm  -5.81405 6.63492 -45.4367
LeftForeArm  5.82958 -2.90064 -10.9679
LeftHand  -0.0182032 3.76337 -0.173561
RightShoulder  2.314 7.934 13.7815
RightArm  -5.04188 37.3708 78.1434
RightForeArm  63.4963 -0.627568 7.83689
RightHand  0.042881 -5.92092 -13.3681
LeftUpLeg  -43.4684 1.08122 -11.4824
LeftLeg  19.396 16.2195 6.54983
LeftFoot  -7.04405 0.25237 -5.59889
LeftToes  9.43379e-011 5.24309e-011 -4.66411e-011
585
root  56.893 36.7108 -29.4179 -168.407 -41.7936 -177.946
RightUpLeg  6.3186 -4.90415 6.4821
RightLeg  22.2073 5.59021 2.29028
RightFoot  -24.3963 -0.0209141 1.26217
RightToes  -5.28216e-011 1.2921e-014 -6.02303e-014
Spine  8.13832 8.00527 12.2542
Spine1  4.67831 11.8177 -13.4217
HEad  -21.3505 61.261 -35.4327
LeftShoulder1  0.832414 0.178216 -20.4251
LeftArm  -5.88853 4.41503 -43.6235
LeftForeArm  6.2594 0.812338 -10.9462
LeftHand  -0.0226607 4.13925 0.0121711
RightShoulder  2.36029 8.11557 13.8692
RightArm  -7.33367 36.532 76.6914
RightForeArm  63.495 -3.49711 6.66739
RightHand  0.115823 -6.39135 -15.4042
LeftUpLeg  -44.401 0.271421 -10.3643
LeftLeg  23.6462 16.6957 8.16148
LeftFoot  -3.46274 -0.421505 6.41775
LeftToes  9.43379e-011 5.24309e-011 -4.66411e-011
586
root  56.0367 36.2855 -30.9792 -170.198 -40.8425 -176.201
RightUpLeg  5.96246 -5.08171 6.2729
RightLeg  30.2265 10.9409 6.59181
RightFoot  -21.6067 0.223651 4.11924
RightToes  -5.28216e-011 1.2921e-014 -6.02303e-014
Spine  8.57865 7.47846 11.6086
Spine1  3.16294 11.1898 -14.6727
HEad  -26.93 60.7797 -39.6028
LeftShoulder1  0.857719 0.22357 -21.7191
LeftArm  -5.61613 1.04397 -41.4528
LeftForeArm  6.39611 5.75326 -11.141
LeftHand  -0.0261534 4.68846 0.120869
RightShoulder  2.49633 8.38545 14.6284
RightArm  -10.237 35.3133 74.7184
RightForeArm  64.6095 -5.81477 5.3701
RightHand  0.1296 -6.36135 -17.2372
LeftUpLeg  -46.6755 -0.100838 -7.54068
LeftLeg  34.4775 16.9219 12.4651
LeftFoot  -5.4403 -0.358098 7.57313
LeftToes  9.43379e-011 5.24309e-011 -4.66411e-011
